<mxfile host="app.diagrams.net" modified="2023-10-23T15:59:09.576Z" agent="Mozilla/5.0 (Macintosh; Intel Mac OS X 10_15_7) AppleWebKit/537.36 (KHTML, like Gecko) Chrome/118.0.0.0 Safari/537.36" etag="b_dBzSVSZcpGHF4mcETb" version="22.0.6" type="github">
  <diagram name="Page-1" id="TaU8kvTh95lOZqET93Vs">
    <mxGraphModel dx="954" dy="546" grid="1" gridSize="10" guides="1" tooltips="1" connect="1" arrows="1" fold="1" page="1" pageScale="1" pageWidth="827" pageHeight="1169" math="0" shadow="0">
      <root>
        <mxCell id="0" />
        <mxCell id="1" parent="0" />
        <mxCell id="pxdGUpeKW5qWhiQJFbSN-3" value="AD_1" style="rounded=1;whiteSpace=wrap;html=1;" parent="1" vertex="1">
          <mxGeometry x="90" y="440" width="60" height="30" as="geometry" />
        </mxCell>
        <mxCell id="pxdGUpeKW5qWhiQJFbSN-4" value="UF001_1" style="rounded=1;whiteSpace=wrap;html=1;" parent="1" vertex="1">
          <mxGeometry x="179" y="310" width="60" height="30" as="geometry" />
        </mxCell>
        <mxCell id="pxdGUpeKW5qWhiQJFbSN-5" value="UF002_3" style="rounded=1;whiteSpace=wrap;html=1;" parent="1" vertex="1">
          <mxGeometry x="273.5" y="400" width="60" height="30" as="geometry" />
        </mxCell>
        <mxCell id="pxdGUpeKW5qWhiQJFbSN-6" value="UF001_3" style="rounded=1;whiteSpace=wrap;html=1;" parent="1" vertex="1">
          <mxGeometry x="362.5" y="310" width="60" height="30" as="geometry" />
        </mxCell>
        <mxCell id="pxdGUpeKW5qWhiQJFbSN-7" value="Start" style="rounded=1;whiteSpace=wrap;html=1;" parent="1" vertex="1">
          <mxGeometry x="10" y="440" width="60" height="30" as="geometry" />
        </mxCell>
        <mxCell id="pxdGUpeKW5qWhiQJFbSN-8" value="UF001_2" style="rounded=1;whiteSpace=wrap;html=1;" parent="1" vertex="1">
          <mxGeometry x="273.5" y="310" width="60" height="30" as="geometry" />
        </mxCell>
        <mxCell id="pxdGUpeKW5qWhiQJFbSN-9" value="UF002_1" style="rounded=1;whiteSpace=wrap;html=1;" parent="1" vertex="1">
          <mxGeometry x="178.5" y="370" width="60" height="30" as="geometry" />
        </mxCell>
        <mxCell id="pxdGUpeKW5qWhiQJFbSN-10" value="UF005_1" style="rounded=1;whiteSpace=wrap;html=1;" parent="1" vertex="1">
          <mxGeometry x="179" y="580" width="60" height="32.5" as="geometry" />
        </mxCell>
        <mxCell id="pxdGUpeKW5qWhiQJFbSN-11" value="RP_1" style="rounded=1;whiteSpace=wrap;html=1;" parent="1" vertex="1">
          <mxGeometry x="453.5" y="410" width="70" height="30" as="geometry" />
        </mxCell>
        <mxCell id="pxdGUpeKW5qWhiQJFbSN-12" value="UG_1&lt;br&gt;" style="rounded=1;whiteSpace=wrap;html=1;" parent="1" vertex="1">
          <mxGeometry x="520" y="460" width="56.5" height="30" as="geometry" />
        </mxCell>
        <mxCell id="pxdGUpeKW5qWhiQJFbSN-13" value="S_1" style="rounded=1;whiteSpace=wrap;html=1;" parent="1" vertex="1">
          <mxGeometry x="182.5" y="250" width="55" height="30" as="geometry" />
        </mxCell>
        <mxCell id="pxdGUpeKW5qWhiQJFbSN-14" value="UF002_2" style="rounded=1;whiteSpace=wrap;html=1;" parent="1" vertex="1">
          <mxGeometry x="273.5" y="360" width="60" height="30" as="geometry" />
        </mxCell>
        <mxCell id="pxdGUpeKW5qWhiQJFbSN-19" value="UF003_1" style="rounded=1;whiteSpace=wrap;html=1;" parent="1" vertex="1">
          <mxGeometry x="178.5" y="440" width="60" height="30" as="geometry" />
        </mxCell>
        <mxCell id="pxdGUpeKW5qWhiQJFbSN-21" value="UF003_3" style="rounded=1;whiteSpace=wrap;html=1;" parent="1" vertex="1">
          <mxGeometry x="356.5" y="440" width="62" height="30" as="geometry" />
        </mxCell>
        <mxCell id="pxdGUpeKW5qWhiQJFbSN-23" value="UF004_1" style="rounded=1;whiteSpace=wrap;html=1;" parent="1" vertex="1">
          <mxGeometry x="179" y="510" width="60" height="30" as="geometry" />
        </mxCell>
        <mxCell id="pxdGUpeKW5qWhiQJFbSN-24" value="UF004_2" style="rounded=1;whiteSpace=wrap;html=1;" parent="1" vertex="1">
          <mxGeometry x="273.5" y="500" width="60" height="30" as="geometry" />
        </mxCell>
        <mxCell id="pxdGUpeKW5qWhiQJFbSN-25" value="UF004_3" style="rounded=1;whiteSpace=wrap;html=1;" parent="1" vertex="1">
          <mxGeometry x="273.5" y="555" width="60" height="30" as="geometry" />
        </mxCell>
        <mxCell id="pxdGUpeKW5qWhiQJFbSN-26" value="RP_2" style="rounded=1;whiteSpace=wrap;html=1;" parent="1" vertex="1">
          <mxGeometry x="453.5" y="360" width="70" height="29.5" as="geometry" />
        </mxCell>
        <mxCell id="pxdGUpeKW5qWhiQJFbSN-27" value="RP_3" style="rounded=1;whiteSpace=wrap;html=1;" parent="1" vertex="1">
          <mxGeometry x="453.5" y="312.5" width="70" height="25" as="geometry" />
        </mxCell>
        <mxCell id="pxdGUpeKW5qWhiQJFbSN-28" value="RP_4" style="rounded=1;whiteSpace=wrap;html=1;" parent="1" vertex="1">
          <mxGeometry x="453.5" y="260" width="70" height="30" as="geometry" />
        </mxCell>
        <mxCell id="pxdGUpeKW5qWhiQJFbSN-29" value="RP_5" style="rounded=1;whiteSpace=wrap;html=1;" parent="1" vertex="1">
          <mxGeometry x="630" y="410.5" width="70" height="29.5" as="geometry" />
        </mxCell>
        <mxCell id="pxdGUpeKW5qWhiQJFbSN-31" value="UG_2" style="rounded=1;whiteSpace=wrap;html=1;" parent="1" vertex="1">
          <mxGeometry x="520" y="510" width="56.5" height="30" as="geometry" />
        </mxCell>
        <mxCell id="pxdGUpeKW5qWhiQJFbSN-32" value="UG_3" style="rounded=1;whiteSpace=wrap;html=1;" parent="1" vertex="1">
          <mxGeometry x="520.25" y="552.25" width="59.75" height="27.75" as="geometry" />
        </mxCell>
        <mxCell id="pxdGUpeKW5qWhiQJFbSN-33" value="UG_4" style="rounded=1;whiteSpace=wrap;html=1;" parent="1" vertex="1">
          <mxGeometry x="520" y="600.5" width="60" height="29.5" as="geometry" />
        </mxCell>
        <mxCell id="pxdGUpeKW5qWhiQJFbSN-34" value="UG_5" style="rounded=1;whiteSpace=wrap;html=1;" parent="1" vertex="1">
          <mxGeometry x="520" y="650" width="60" height="30" as="geometry" />
        </mxCell>
        <mxCell id="Iaz2ENsVHQpy9_ZsfCBn-1" value="UF003_2" style="rounded=1;whiteSpace=wrap;html=1;" vertex="1" parent="1">
          <mxGeometry x="273.5" y="440" width="60" height="30" as="geometry" />
        </mxCell>
        <mxCell id="Iaz2ENsVHQpy9_ZsfCBn-2" value="UF002_4" style="rounded=1;whiteSpace=wrap;html=1;" vertex="1" parent="1">
          <mxGeometry x="362.5" y="380" width="56" height="30" as="geometry" />
        </mxCell>
        <mxCell id="Iaz2ENsVHQpy9_ZsfCBn-3" value="UF003_4" style="rounded=1;whiteSpace=wrap;html=1;" vertex="1" parent="1">
          <mxGeometry x="356.5" y="490" width="60" height="30" as="geometry" />
        </mxCell>
        <mxCell id="Iaz2ENsVHQpy9_ZsfCBn-11" value="" style="endArrow=classic;html=1;rounded=0;entryX=0;entryY=0.5;entryDx=0;entryDy=0;" edge="1" parent="1" target="pxdGUpeKW5qWhiQJFbSN-3">
          <mxGeometry width="50" height="50" relative="1" as="geometry">
            <mxPoint x="70" y="455" as="sourcePoint" />
            <mxPoint x="120" y="405" as="targetPoint" />
          </mxGeometry>
        </mxCell>
        <mxCell id="Iaz2ENsVHQpy9_ZsfCBn-15" value="" style="endArrow=classic;startArrow=classic;html=1;rounded=0;exitX=0;exitY=0.5;exitDx=0;exitDy=0;" edge="1" parent="1" source="pxdGUpeKW5qWhiQJFbSN-10">
          <mxGeometry width="50" height="50" relative="1" as="geometry">
            <mxPoint x="160" y="600.505" as="sourcePoint" />
            <mxPoint x="180" y="260" as="targetPoint" />
            <Array as="points">
              <mxPoint x="160" y="596" />
              <mxPoint x="160" y="260" />
            </Array>
          </mxGeometry>
        </mxCell>
        <mxCell id="Iaz2ENsVHQpy9_ZsfCBn-16" value="" style="endArrow=classic;html=1;rounded=0;entryX=0;entryY=0.5;entryDx=0;entryDy=0;" edge="1" parent="1" target="pxdGUpeKW5qWhiQJFbSN-4">
          <mxGeometry width="50" height="50" relative="1" as="geometry">
            <mxPoint x="160" y="325" as="sourcePoint" />
            <mxPoint x="210" y="280" as="targetPoint" />
          </mxGeometry>
        </mxCell>
        <mxCell id="Iaz2ENsVHQpy9_ZsfCBn-17" value="" style="endArrow=classic;html=1;rounded=0;entryX=0;entryY=0.5;entryDx=0;entryDy=0;" edge="1" parent="1" target="pxdGUpeKW5qWhiQJFbSN-9">
          <mxGeometry width="50" height="50" relative="1" as="geometry">
            <mxPoint x="160" y="385" as="sourcePoint" />
            <mxPoint x="210" y="340" as="targetPoint" />
          </mxGeometry>
        </mxCell>
      </root>
    </mxGraphModel>
  </diagram>
</mxfile>
